<svg xmlns="http://www.w3.org/2000/svg" viewBox="0 0 595.3 595.3"><linearGradient id="a" gradientUnits="userSpaceOnUse" x1="308.569" y1="364.966" x2="420.43" y2="493.512"><stop offset="0" stop-color="#596dcd"/><stop offset="1" stop-color="#3548b6"/></linearGradient><path fill="url(#a)" d="M531 171h-54l-99 153V171h-54v243h54l99-153v234l-369 .3V468l-27.3 27.3L54 522l27 27 27.2 27.2V549H531V171z"/><linearGradient id="b" gradientUnits="userSpaceOnUse" x1="331.657" y1="286.219" x2="232.057" y2="165.09"><stop offset="0" stop-color="#cd6d59"/><stop offset="1" stop-color="#c24535"/></linearGradient><path fill="url(#b)" d="M504 36.2l-.2-.2-27-27v27L54 35.7V90l144 .3V360h-90.1v-90H54v144h198V90.3h225v26.9l26.9-26.9.4-.4L531 63.2z"/></svg>